<svg version="1.2" xmlns="http://www.w3.org/2000/svg" viewBox="0 0 512 512" width="14" height="14">
	<title>graduate-cap-svg</title>
	<style>
		.s0 { fill: #ffffff } 
	</style>
	<g id="Layer">
		<path id="Layer" class="s0" d="m256 89.6l-233.5 87.6 233.5 116.7 111.2-55.6-104.3-31.9q-0.8 0.4-1.7 0.7-0.8 0.3-1.7 0.5-0.8 0.2-1.7 0.3-0.9 0.1-1.8 0.1c-2.1 0-4.2-0.4-6.1-1.2-2-0.8-3.7-2-5.2-3.5-1.5-1.5-2.7-3.2-3.5-5.2-0.8-1.9-1.2-4-1.2-6.1 0-2.1 0.4-4.2 1.2-6.1 0.8-2 2-3.7 3.5-5.2 1.5-1.5 3.2-2.7 5.2-3.5 1.9-0.8 4-1.2 6.1-1.2l-2.6 8.6 18.5 5.7q0 0 0 0 0 0 0 0 0 0 0 0 0 0.1 0 0.1l27.4 8.3 155.7 47.9v12.2q-1.6 1.1-2.9 2.5-1.3 1.5-2.2 3.2-1 1.8-1.4 3.7-0.5 1.8-0.5 3.8 0 2 0.5 3.9 0.5 2 1.4 3.7 1 1.8 2.4 3.3 1.3 1.4 3 2.5c-7.3 27.5-7.3 90-7.3 114.6 16 10.4 16 10.8 32 0 0-24.6 0-87.1-7.3-114.6q1.7-1.1 3-2.5 1.4-1.5 2.4-3.3 0.9-1.7 1.4-3.7 0.5-1.9 0.5-3.9 0-2-0.5-3.9-0.4-1.9-1.4-3.6-0.9-1.7-2.2-3.2-1.3-1.4-2.9-2.5v-25.4l-59.3-18.3 75.8-37.9zm-136.4 159.4l-13.1 78.7c26.2 3.4 57.5 18.6 86.3 36.6 16.4 10.3 31.7 21.5 44.1 32.4 7.7 6.7 14 13 19.1 19.3 5.1-6.3 11.5-12.6 19.1-19.3 12.4-10.9 27.8-22.1 44.1-32.4 28.8-18 60.1-33.2 86.3-36.6l-13.1-78.7h-6.3l-130.1 65-130.1-65z"/>
	</g>
</svg>