<svg version="1.2" xmlns="http://www.w3.org/2000/svg" viewBox="0 0 512 512" width="14" height="14">
	<title>position-marker-svg</title>
	<style>
		.s0 { fill: #ffffff } 
	</style>
	<g id="Layer">
		<path id="Layer" fill-rule="evenodd" class="s0" d="m393.1 154.2c0 23.3-5.9 46.1-17.2 66.4h0.1l-120 274.3-125.5-284.4c-5.6-10.2-11.6-33-11.6-56.3 0-75.7 61.4-137.1 137.1-137.1 75.7 0 137.1 61.4 137.1 137.1zm-163.3-63.3c-8.4 3.4-15.9 8.5-22.3 14.9-6.3 6.3-11.4 13.9-14.8 22.2-3.5 8.3-5.3 17.2-5.3 26.2 0 9 1.8 17.9 5.3 26.3 3.4 8.3 8.5 15.8 14.8 22.2 6.4 6.4 13.9 11.4 22.3 14.9 8.3 3.4 17.2 5.2 26.2 5.2 9 0 17.9-1.8 26.2-5.2 8.4-3.5 15.9-8.5 22.3-14.9 6.3-6.4 11.4-13.9 14.8-22.2 3.5-8.4 5.3-17.3 5.3-26.3 0-9-1.8-17.9-5.3-26.2-3.4-8.3-8.5-15.9-14.8-22.3-6.4-6.3-13.9-11.4-22.3-14.8-8.3-3.5-17.2-5.2-26.2-5.2-9 0-17.9 1.7-26.2 5.2z"/>
	</g>
</svg>