<svg version="1.2" xmlns="http://www.w3.org/2000/svg" viewBox="0 0 512 512" width="14" height="14">
	<title>wireframe-globe-svg</title>
	<style>
		.s0 { fill: #ffffff } 
	</style>
	<g id="Layer">
		<path id="Layer" fill-rule="evenodd" class="s0" d="m489 256c0 128.6-104.4 233-233 233-128.6 0-233-104.4-233-233 0-128.6 104.4-233 233-233 128.6 0 233 104.4 233 233zm-398.7-137h52.9c20.4-26.8 46.8-52.2 79.1-75.4-52.9 8.4-99.4 35.9-132 75.4zm278.5 0h52.9c-32.6-39.5-79.1-67.1-132-75.4 32.3 23.3 58.7 48.7 79.1 75.4zm-202.6 0h36.3c7.5-19.2 16.5-38.6 27-58.4-25.1 18.4-46.2 38-63.3 58.4zm143.3 0h36.3c-17.1-20.4-38.2-40-63.3-58.4 10.5 19.8 19.5 39.2 27 58.4zm-87.6 0h25.1v-53c-9.7 18-18.1 35.7-25.1 53zm43.1 0h25.1c-7-17.3-15.4-35-25.1-53zm-211.3 64h52.8c6.1-15.6 14.1-31 23.9-46h-53.5c-9.5 14.2-17.3 29.7-23.2 46zm72.2 0h57.1c3.3-15.2 7.5-30.5 12.9-46h-43.8c-10.7 15.1-19.5 30.4-26.2 46zm75.5 0h45.6v-46h-32.1c-5.6 15.5-10.1 30.8-13.5 46zm63.6 0h45.6c-3.4-15.2-7.9-30.5-13.5-46h-32.1zm64 0h57.1c-6.7-15.6-15.5-30.9-26.2-46h-43.8c5.4 15.5 9.6 30.8 12.9 46zm76.5 0h52.8c-5.9-16.3-13.7-31.8-23.2-46h-53.5c9.8 15 17.8 30.4 23.9 46zm-364.3 64h50.4c1.1-15.4 4-30.8 8.6-46h-52.1c-3.9 14.8-6.3 30.2-6.9 46zm68.4 0h65.5c0.5-15.3 1.9-30.6 4.4-46h-60.5c-5 15.3-8.2 30.7-9.4 46zm83.5 0h53.9v-46h-49.2c-2.7 15.4-4.2 30.7-4.7 46zm71.9 0h53.9c-0.5-15.3-2-30.6-4.7-46h-49.2zm71.9 0h65.5c-1.2-15.3-4.4-30.7-9.4-46h-60.5c2.5 15.4 3.9 30.7 4.4 46zm83.5 0h50.4c-0.7-15.8-3-31.2-6.9-46h-52.1c4.6 15.2 7.5 30.6 8.6 46zm-372.3 64h48.9c-3.7-15.1-5.7-30.5-6-46h-49.8c0.6 15.8 3 31.2 6.9 46zm67.5 0h63.9c-2.5-15.4-3.9-30.7-4.4-46h-66.1c0.3 15.4 2.5 30.8 6.6 46zm82.2 0h49.2v-46h-53.9c0.5 15.3 2 30.6 4.7 46zm67.2 0h49.2c2.7-15.4 4.2-30.7 4.7-46h-53.9zm67.5 0h63.9c4.1-15.2 6.3-30.6 6.6-46h-66.1c-0.5 15.3-1.9 30.6-4.4 46zm82.5 0h48.9c3.9-14.8 6.2-30.2 6.9-46h-49.8c-0.3 15.5-2.3 30.9-6 46zm-338.1 64h47.6c-9.3-14.9-16.7-30.3-22.1-46h-48.7c5.9 16.3 13.7 31.8 23.2 46zm69 0h50c-5.4-15.5-9.6-30.8-12.9-46h-61.6c6 15.7 14.1 31.1 24.5 46zm69 0h32.1v-46h-45.6c3.4 15.2 7.9 30.5 13.5 46zm50.1 0h32.1c5.6-15.5 10.1-30.8 13.5-46h-45.6zm51.1 0h50c10.4-14.9 18.5-30.3 24.5-46h-61.6c-3.3 15.2-7.5 30.5-12.9 46zm71.4 0h47.6c9.5-14.2 17.3-29.7 23.2-46h-48.7c-5.4 15.7-12.8 31.1-22.1 46zm-169.7 92.6c-33.6-22.3-60.6-47.5-80.9-74.6h-46.6c31.7 38.3 76.5 65.5 127.5 74.6zm13.7-12.5c-11.4-21.1-21.1-41.7-29-62.1h-42.9c18.7 22.3 42.6 43.2 71.9 62.1zm15.5-9.1v-53h-25.1c7 17.3 15.4 35 25.1 53zm18 0c9.7-18 18.1-35.7 25.1-53h-25.1zm15.5 9.1c29.3-18.9 53.2-39.8 71.9-62.1h-42.9c-7.9 20.4-17.6 41-29 62.1zm13.7 12.5c51-9.1 95.8-36.3 127.5-74.6h-46.6c-20.3 27.1-47.3 52.3-80.9 74.6z"/>
	</g>
</svg>